<?xml version="1.0" standalone="no"?>
<!DOCTYPE svg PUBLIC "-//W3C//DTD SVG 20010904//EN"
 "http://www.w3.org/TR/2001/REC-SVG-20010904/DTD/svg10.dtd">
<svg version="1.0" xmlns="http://www.w3.org/2000/svg"
 width="3465.000000pt" height="3465.000000pt" viewBox="0 0 3465.000000 3465.000000"
 preserveAspectRatio="xMidYMid meet">

<g transform="translate(0.000000,3465.000000) scale(0.100000,-0.100000)"
fill="#000000" stroke="none">
<path d="M16160 24425 c-215 -18 -521 -62 -655 -95 -22 -5 -89 -21 -150 -35
-60 -14 -130 -32 -155 -39 -25 -8 -72 -22 -105 -31 -118 -34 -387 -130 -490
-175 -22 -10 -65 -28 -95 -41 -67 -28 -380 -185 -469 -235 -285 -160 -644
-419 -908 -656 -83 -75 -369 -364 -428 -433 -116 -136 -244 -298 -330 -420
-84 -119 -265 -399 -265 -411 0 -2 -21 -42 -47 -87 -165 -290 -311 -638 -436
-1042 -44 -141 -102 -392 -132 -565 -9 -52 -20 -117 -25 -145 -21 -114 -48
-427 -56 -665 -10 -272 34 -818 86 -1060 5 -25 14 -72 21 -105 113 -576 371
-1215 697 -1728 139 -218 352 -504 501 -672 143 -161 436 -442 601 -575 30
-25 57 -47 60 -50 3 -3 43 -34 90 -69 47 -34 98 -72 113 -84 16 -12 39 -28 52
-37 13 -8 63 -42 112 -74 131 -88 147 -98 283 -176 282 -162 598 -303 921
-410 240 -81 511 -149 749 -191 592 -102 1259 -96 1825 17 378 75 660 158 983
290 1031 420 1917 1188 2497 2164 69 116 227 422 257 495 9 22 27 65 41 95
104 227 245 661 296 915 85 414 102 548 121 932 14 274 -4 689 -39 908 -5 33
-15 96 -21 140 -12 81 -58 311 -84 420 -155 646 -461 1298 -863 1843 -700 947
-1687 1625 -2803 1926 -107 29 -287 71 -340 81 -19 3 -72 12 -118 21 -387 68
-893 91 -1292 59z m861 -330 c500 -45 855 -130 1333 -322 209 -84 356 -155
626 -304 240 -133 517 -334 790 -574 115 -101 407 -406 523 -546 403 -488 713
-1069 911 -1709 20 -63 39 -131 42 -150 4 -19 10 -42 14 -50 18 -34 69 -313
94 -505 35 -268 41 -370 41 -685 0 -382 -12 -531 -67 -870 -32 -194 -34 -206
-72 -350 -153 -587 -445 -1202 -804 -1690 -234 -318 -591 -686 -913 -942 -399
-316 -943 -612 -1436 -779 -278 -95 -453 -139 -693 -178 -336 -54 -481 -65
-835 -66 -391 0 -610 21 -1010 95 -151 29 -505 133 -640 190 -11 4 -69 27
-130 51 -152 58 -463 210 -625 304 -392 228 -663 437 -996 769 -344 345 -557
621 -787 1022 -111 195 -253 491 -317 659 -4 11 -15 38 -23 60 -14 36 -56 152
-77 215 -184 535 -264 1239 -215 1885 18 242 25 297 76 600 38 229 179 672
298 940 68 153 92 204 146 310 75 146 98 187 187 334 66 110 225 345 250 373
7 7 32 38 54 68 123 163 478 539 633 670 30 25 79 67 110 93 367 318 924 636
1440 823 483 175 863 248 1451 278 114 6 460 -5 621 -19z"/>
<path d="M15555 21761 c-246 -52 -405 -145 -543 -320 -59 -74 -55 -90 28 -111
36 -9 114 -40 174 -68 60 -29 115 -52 123 -52 7 0 39 13 71 29 293 146 557
148 807 6 92 -52 229 -157 324 -247 107 -103 193 -167 251 -189 73 -27 186
-36 256 -19 101 24 93 -20 -16 -90 -148 -95 -336 -94 -530 5 -30 15 -117 69
-193 121 -199 134 -231 148 -343 148 -80 1 -97 -2 -145 -27 -59 -30 -113 -73
-121 -97 -3 -9 28 -53 76 -110 110 -128 136 -163 183 -245 76 -130 78 -144 58
-302 -22 -165 -25 -472 -6 -583 25 -150 63 -280 120 -419 17 -41 31 -83 30
-95 0 -27 -85 -134 -129 -163 -32 -23 -38 -23 -337 -23 -240 0 -310 3 -336 14
-18 8 -69 50 -115 95 -129 125 -219 188 -502 353 -285 166 -427 291 -473 416
-47 128 -45 236 11 402 23 69 151 339 174 368 21 25 130 13 215 -24 17 -8 33
-14 36 -14 3 0 61 -35 129 -79 258 -164 412 -206 533 -143 47 24 110 86 101
100 -3 5 -36 7 -75 4 -38 -2 -85 -2 -105 2 -46 9 -163 88 -251 171 -198 187
-403 302 -576 324 -214 28 -397 -55 -449 -202 -11 -31 -20 -77 -20 -102 0 -57
-7 -57 -118 -2 -84 41 -87 42 -191 42 -119 0 -159 -11 -270 -77 -36 -21 -101
-56 -143 -78 -94 -49 -104 -68 -56 -117 78 -82 243 -179 353 -208 64 -16 165
-19 233 -6 79 16 72 -10 -73 -239 -140 -220 -210 -379 -234 -530 -6 -36 -11
-129 -11 -206 l0 -142 -78 -108 c-136 -189 -311 -438 -392 -557 -140 -207
-402 -550 -552 -725 -109 -127 -243 -350 -236 -395 3 -22 4 -22 258 -22 l255
0 -4 90 c-2 62 2 107 12 142 43 145 231 326 455 437 96 48 150 68 317 115 256
72 456 159 577 250 90 67 90 67 28 147 -106 137 -169 319 -177 504 -4 122 3
154 31 131 8 -7 18 -23 22 -34 12 -41 87 -192 122 -247 235 -370 574 -581
1042 -649 91 -13 371 -31 382 -25 15 10 48 -7 48 -24 0 -9 -14 -51 -31 -92
-17 -41 -44 -119 -60 -174 -34 -115 -36 -176 -14 -401 11 -116 18 -152 31
-162 25 -19 543 -18 550 1 3 8 -8 41 -25 74 -73 145 -119 345 -106 460 13 108
59 149 262 230 56 23 122 51 145 62 58 27 187 132 211 173 52 85 68 122 86
196 11 44 22 85 26 91 19 31 67 -59 85 -160 18 -101 -17 -227 -94 -329 -39
-52 -35 -63 22 -57 26 3 97 8 157 11 204 11 371 56 517 141 216 124 386 194
523 214 33 4 78 13 100 18 22 5 70 12 107 15 75 7 68 12 153 -95 165 -207 478
-368 830 -428 151 -26 329 -41 460 -39 l109 1 27 -31 c14 -17 32 -44 40 -59 7
-15 24 -43 37 -63 43 -68 82 -187 93 -288 6 -53 14 -107 17 -121 l7 -25 232
-3 c268 -3 257 -7 222 93 -23 67 -139 293 -175 342 -13 17 -24 34 -24 38 0 13
-140 196 -210 274 -140 155 -246 221 -357 221 -106 0 -214 59 -275 150 -65 98
-98 228 -128 510 -33 307 -93 498 -199 639 -23 30 -41 60 -41 67 0 16 72 2
158 -32 360 -142 661 -426 1090 -1029 171 -241 275 -345 417 -415 149 -74 264
-89 370 -49 98 36 146 107 158 229 3 36 17 92 29 125 20 52 23 78 23 200 0
136 -1 142 -33 217 -88 204 -214 321 -560 521 -98 57 -116 49 -77 -35 27 -58
54 -221 55 -320 0 -123 50 -296 111 -384 49 -72 135 -151 233 -214 138 -89
140 -90 131 -128 -8 -39 -47 -87 -86 -107 -94 -49 -282 26 -424 170 -71 73
-96 104 -301 395 -391 553 -626 786 -984 977 -93 50 -315 138 -421 167 -70 20
-504 166 -594 201 -125 48 -293 133 -387 196 -174 117 -373 338 -698 777 -320
430 -623 644 -1038 733 -141 31 -395 35 -517 10z"/>
<path d="M14904 20087 c-3 -9 7 -42 23 -74 25 -51 35 -62 86 -87 53 -27 61
-28 98 -17 21 7 46 8 54 4 8 -5 42 -46 76 -93 64 -87 83 -110 93 -110 13 0 4
34 -27 102 -19 40 -42 96 -52 123 -32 87 -29 86 -322 162 -15 3 -25 0 -29 -10z"/>
<path d="M17995 18219 c-173 -30 -407 -115 -489 -180 -34 -27 -33 -40 10 -96
64 -84 69 -121 24 -209 -18 -36 -57 -86 -100 -128 -111 -108 -210 -272 -210
-346 0 -11 9 -24 19 -30 24 -12 330 -13 350 -1 10 7 14 27 12 73 -2 77 15 128
69 208 97 143 283 288 523 406 73 37 117 64 117 74 0 8 -23 31 -52 50 -28 19
-76 66 -106 105 -31 38 -56 70 -57 71 -2 8 -71 9 -110 3z"/>
<path d="M10882 13769 c-236 -30 -402 -157 -456 -349 -23 -84 -36 -337 -36
-728 0 -382 12 -615 36 -702 48 -171 196 -299 394 -341 86 -18 288 -16 360 4
180 50 279 126 345 262 54 114 59 178 59 795 0 601 -5 668 -56 779 -51 110
-155 202 -278 245 -53 19 -220 46 -270 45 -19 -1 -63 -5 -98 -10z m149 -259
c19 -6 45 -20 56 -32 43 -48 44 -78 41 -793 -3 -647 -4 -682 -22 -719 -48 -95
-173 -101 -233 -9 -17 25 -18 70 -18 743 l0 715 24 38 c22 35 66 64 101 66 8
1 31 -4 51 -9z"/>
<path d="M24270 13775 c-8 -2 -49 -9 -90 -15 -162 -27 -284 -104 -339 -215
-31 -62 -51 -186 -51 -312 0 -179 35 -301 115 -398 32 -39 169 -141 347 -259
114 -76 217 -163 241 -204 45 -76 61 -269 31 -359 -35 -105 -121 -148 -216
-108 -68 28 -79 65 -87 270 l-6 160 -200 0 -200 0 1 -150 c0 -219 27 -311 114
-395 107 -101 261 -153 460 -154 142 0 233 17 338 64 184 84 232 184 232 478
0 152 -13 262 -41 342 -35 101 -128 194 -314 317 -71 47 -142 94 -157 105 -15
10 -30 18 -34 18 -12 0 -115 81 -145 114 -44 49 -61 120 -57 235 3 92 5 103
33 143 53 74 154 87 214 26 23 -24 31 -44 40 -104 6 -41 11 -97 11 -124 0 -39
4 -52 19 -60 12 -6 93 -10 195 -10 157 0 176 2 185 18 10 19 -2 245 -17 302
-27 104 -93 167 -234 224 -94 37 -311 66 -388 51z"/>
<path d="M9057 13723 c-4 -3 -7 -462 -7 -1019 l0 -1014 23 -5 c12 -3 112 -4
222 -3 l200 3 5 432 c4 367 7 435 20 447 11 11 50 15 163 18 118 2 150 6 157
18 15 23 13 263 -2 278 -8 8 -57 12 -154 12 -158 0 -168 4 -179 63 -4 18 -5
118 -3 224 3 169 5 195 21 210 15 16 41 18 193 21 l175 3 -3 157 -3 157 -411
3 c-226 1 -413 -1 -417 -5z"/>
<path d="M12185 13719 c-3 -8 -4 -468 -3 -1024 l3 -1010 220 0 220 0 3 464 c3
540 -4 506 97 499 87 -6 133 -31 159 -87 20 -44 21 -65 26 -461 l5 -415 200 0
200 0 0 410 0 410 -24 40 c-48 79 -102 118 -198 144 -50 14 -73 34 -73 66 0
30 35 55 75 55 33 0 82 16 132 43 64 34 92 134 93 331 0 229 -33 349 -121 431
-101 95 -163 105 -646 112 -300 4 -364 3 -368 -8z m602 -264 c103 -31 127 -91
121 -305 -5 -171 -19 -213 -80 -243 -56 -27 -141 -34 -173 -13 l-25 16 0 258
c0 264 2 282 40 295 27 10 66 7 117 -8z"/>
<path d="M13926 13714 c-11 -29 -7 -1994 4 -2015 10 -18 26 -19 423 -19 308 0
416 3 425 12 17 17 17 282 -1 296 -7 6 -85 12 -189 14 -142 2 -180 6 -192 18
-24 23 -24 526 -1 549 13 13 42 16 165 16 81 0 152 3 156 7 11 11 13 260 3
281 -9 15 -27 17 -157 17 -108 1 -152 4 -165 14 -16 13 -18 34 -18 242 0 193
3 230 16 243 13 13 49 17 183 21 l167 5 0 155 0 155 -406 3 c-364 2 -407 1
-413 -14z"/>
<path d="M15245 13720 c-7 -11 0 -49 41 -235 14 -66 30 -138 34 -160 4 -22 16
-76 25 -120 10 -44 21 -98 25 -120 4 -22 17 -82 29 -134 23 -104 26 -151 12
-214 -9 -38 -23 -121 -51 -287 -5 -30 -15 -93 -24 -140 -8 -47 -20 -116 -26
-155 -6 -38 -17 -104 -25 -145 -30 -166 -47 -299 -42 -314 6 -15 31 -16 214
-14 l207 3 12 70 c6 39 19 120 28 180 10 61 21 135 26 165 5 30 17 116 26 190
19 145 30 170 75 170 23 0 30 -6 42 -42 8 -24 22 -88 31 -143 10 -55 21 -118
26 -140 5 -22 17 -76 26 -120 33 -155 73 -307 85 -321 9 -11 50 -14 200 -14
119 0 190 4 194 10 5 9 -47 237 -105 460 -5 19 -16 64 -25 100 -8 36 -20 81
-25 100 -5 19 -21 85 -35 145 -28 120 -51 209 -67 267 -12 42 -6 125 17 223 9
39 20 90 24 115 9 47 47 227 88 420 13 63 27 136 30 163 l6 47 -174 -2 -174
-3 -12 -40 c-7 -22 -19 -76 -28 -120 -9 -44 -21 -100 -26 -125 -5 -25 -19 -92
-30 -149 -11 -57 -24 -112 -30 -122 -19 -37 -81 -32 -93 8 -5 20 -96 458 -105
513 l-6 35 -207 3 c-131 1 -209 -1 -213 -8z"/>
<path d="M17685 13718 c-3 -7 -4 -467 -3 -1023 l3 -1010 450 0 c481 0 531 5
610 50 100 58 134 181 135 485 0 253 -27 370 -102 436 -26 23 -140 74 -167 74
-25 0 -61 37 -61 64 0 30 12 39 80 61 107 34 147 63 177 124 25 53 26 63 26
211 -1 214 -35 333 -118 415 -102 103 -223 125 -698 125 -253 0 -329 -3 -332
-12z m659 -278 c44 -26 64 -72 76 -168 12 -107 -3 -286 -29 -321 -35 -49 -66
-64 -143 -68 -119 -8 -113 -24 -113 292 0 255 1 267 20 282 27 20 146 10 189
-17z m-43 -801 c89 -28 103 -50 118 -179 20 -178 6 -389 -30 -446 -23 -38 -82
-64 -159 -71 -99 -9 -95 -25 -98 342 -3 373 -5 365 82 365 29 0 68 -5 87 -11z"/>
<path d="M19454 13705 c-3 -14 -4 -393 -1 -843 5 -874 4 -853 56 -964 26 -53
93 -127 149 -161 50 -31 155 -73 222 -88 79 -18 301 -15 375 5 95 26 178 71
234 129 63 65 84 98 113 180 l23 62 0 850 0 850 -220 0 -220 0 -5 -850 c-5
-721 -8 -857 -21 -895 -37 -112 -182 -122 -230 -17 -18 40 -19 79 -19 882 0
462 -3 850 -6 863 -6 22 -7 22 -225 22 l-219 0 -6 -25z"/>
<path d="M21235 13718 c-3 -7 -4 -467 -3 -1023 l3 -1010 390 0 390 0 0 155 0
155 -146 5 c-126 4 -150 8 -168 24 -21 19 -21 21 -23 860 l-3 841 -218 3
c-169 2 -219 0 -222 -10z"/>
<path d="M22546 13714 c-8 -20 -8 -1997 0 -2018 5 -14 49 -16 388 -16 284 0
385 3 394 12 13 13 17 274 4 295 -5 8 -56 13 -154 15 -125 3 -150 6 -165 21
-17 17 -18 69 -23 860 l-5 842 -216 3 c-191 2 -217 0 -223 -14z"/>
</g>
</svg>
